<svg xmlns="http://www.w3.org/2000/svg" width="100%" height="100%">
  <defs>
    <pattern x="336" y="305" id="pattern-output" width="182" height="91" patternUnits="userSpaceOnUse">
      <svg xmlns="http://www.w3.org/2000/svg" width="182" height="91">
        <rect width="100%" height="100%" fill="#ffffff"></rect>
        <g transform="translate(-84.39036254882812, -56.35356140136719), rotate(0, 0, 0), scale(1)" fill="#333333" stroke-width="2" stroke="none">
          <g transform="translate(0, 0), rotate(0, 94.39036254882812, 87.35356140136719), scale(2.9)">
            <defs>
              <style>      .cls-1 {        fill: #fff;      }      .cls-1, .cls-2 {        fill-rule: evenodd;      }    </style>
            </defs>
            <title>circle2</title>
            <g>
              <path class="cls-1" d="M396.09,595.45a30.21,30.21,0,1,0-30.21-30.21A30.25,30.25,0,0,0,396.09,595.45Z" transform="translate(-364.9 -533.91)"></path>
              <path class="cls-2" d="M396.09,596.57a31.33,31.33,0,1,0-31.2-31.33A31.31,31.31,0,0,0,396.09,596.57Zm0-59.23a27.9,27.9,0,1,1-27.9,27.9A27.93,27.93,0,0,1,396.09,537.34Z" transform="translate(-364.9 -533.91)"></path>
              <path class="cls-2" d="M396.09,590.23a25,25,0,1,0-17.67-7.32A24.84,24.84,0,0,0,396.09,590.23Zm0-47.68a22.68,22.68,0,1,1-22.69,22.69A22.72,22.72,0,0,1,396.09,542.55Z" transform="translate(-364.9 -533.91)"></path>
              <path class="cls-2" d="M396.09,585a19.78,19.78,0,1,0-19.78-19.78A19.8,19.8,0,0,0,396.09,585Zm0-37.25a17.47,17.47,0,1,1-17.47,17.47A17.49,17.49,0,0,1,396.09,547.77Z" transform="translate(-364.9 -533.91)"></path>
              <path class="cls-2" d="M396.09,579.81a14.57,14.57,0,1,0-14.56-14.57A14.59,14.59,0,0,0,396.09,579.81Zm0-26.82a12.26,12.26,0,1,1-12.26,12.26A12.27,12.27,0,0,1,396.09,553Z" transform="translate(-364.9 -533.91)"></path>
              <path class="cls-2" d="M396.09,574.59a9.35,9.35,0,1,0-9.35-9.35A9.36,9.36,0,0,0,396.09,574.59Zm0-16.4a7,7,0,1,1-7,7A7.06,7.06,0,0,1,396.09,558.19Z" transform="translate(-364.9 -533.91)"></path>
            </g>
          </g>
          <g class="clone" transform="translate(182, 0), rotate(0, 94.39036254882812, 87.35356140136719), scale(2.9)">
            <defs>
              <style>      .cls-1 {        fill: #fff;      }      .cls-1, .cls-2 {        fill-rule: evenodd;      }    </style>
            </defs>
            <title>circle2</title>
            <g>
              <path class="cls-1" d="M396.09,595.45a30.21,30.21,0,1,0-30.21-30.21A30.25,30.25,0,0,0,396.09,595.45Z" transform="translate(-364.9 -533.91)"></path>
              <path class="cls-2" d="M396.09,596.57a31.33,31.33,0,1,0-31.2-31.33A31.31,31.31,0,0,0,396.09,596.57Zm0-59.23a27.9,27.9,0,1,1-27.9,27.9A27.93,27.93,0,0,1,396.09,537.34Z" transform="translate(-364.9 -533.91)"></path>
              <path class="cls-2" d="M396.09,590.23a25,25,0,1,0-17.67-7.32A24.84,24.84,0,0,0,396.09,590.23Zm0-47.68a22.68,22.68,0,1,1-22.69,22.69A22.72,22.72,0,0,1,396.09,542.55Z" transform="translate(-364.9 -533.91)"></path>
              <path class="cls-2" d="M396.09,585a19.78,19.78,0,1,0-19.78-19.78A19.8,19.8,0,0,0,396.09,585Zm0-37.25a17.47,17.47,0,1,1-17.47,17.47A17.49,17.49,0,0,1,396.09,547.77Z" transform="translate(-364.9 -533.91)"></path>
              <path class="cls-2" d="M396.09,579.81a14.57,14.57,0,1,0-14.56-14.57A14.59,14.59,0,0,0,396.09,579.81Zm0-26.82a12.26,12.26,0,1,1-12.26,12.26A12.27,12.27,0,0,1,396.09,553Z" transform="translate(-364.9 -533.91)"></path>
              <path class="cls-2" d="M396.09,574.59a9.35,9.35,0,1,0-9.35-9.35A9.36,9.36,0,0,0,396.09,574.59Zm0-16.4a7,7,0,1,1-7,7A7.06,7.06,0,0,1,396.09,558.19Z" transform="translate(-364.9 -533.91)"></path>
            </g>
          </g>
          <g class="clone" transform="translate(0, 91), rotate(0, 94.39036254882812, 87.35356140136719), scale(2.9)">
            <defs>
              <style>      .cls-1 {        fill: #fff;      }      .cls-1, .cls-2 {        fill-rule: evenodd;      }    </style>
            </defs>
            <title>circle2</title>
            <g>
              <path class="cls-1" d="M396.09,595.45a30.21,30.21,0,1,0-30.21-30.21A30.25,30.25,0,0,0,396.09,595.45Z" transform="translate(-364.9 -533.91)"></path>
              <path class="cls-2" d="M396.09,596.57a31.33,31.33,0,1,0-31.2-31.33A31.31,31.31,0,0,0,396.09,596.57Zm0-59.23a27.9,27.9,0,1,1-27.9,27.9A27.93,27.93,0,0,1,396.09,537.34Z" transform="translate(-364.9 -533.91)"></path>
              <path class="cls-2" d="M396.09,590.23a25,25,0,1,0-17.67-7.32A24.84,24.84,0,0,0,396.09,590.23Zm0-47.68a22.68,22.68,0,1,1-22.69,22.69A22.72,22.72,0,0,1,396.09,542.55Z" transform="translate(-364.9 -533.91)"></path>
              <path class="cls-2" d="M396.09,585a19.78,19.78,0,1,0-19.78-19.78A19.8,19.8,0,0,0,396.09,585Zm0-37.25a17.47,17.47,0,1,1-17.47,17.47A17.49,17.49,0,0,1,396.09,547.77Z" transform="translate(-364.9 -533.91)"></path>
              <path class="cls-2" d="M396.09,579.81a14.57,14.57,0,1,0-14.56-14.57A14.59,14.59,0,0,0,396.09,579.81Zm0-26.82a12.26,12.26,0,1,1-12.26,12.26A12.27,12.27,0,0,1,396.09,553Z" transform="translate(-364.9 -533.91)"></path>
              <path class="cls-2" d="M396.09,574.59a9.35,9.35,0,1,0-9.35-9.35A9.36,9.36,0,0,0,396.09,574.59Zm0-16.4a7,7,0,1,1-7,7A7.06,7.06,0,0,1,396.09,558.19Z" transform="translate(-364.9 -533.91)"></path>
            </g>
          </g>
          <g class="clone" transform="translate(182, 91), rotate(0, 94.39036254882812, 87.35356140136719), scale(2.9)">
            <defs>
              <style>      .cls-1 {        fill: #fff;      }      .cls-1, .cls-2 {        fill-rule: evenodd;      }    </style>
            </defs>
            <title>circle2</title>
            <g>
              <path class="cls-1" d="M396.09,595.45a30.21,30.21,0,1,0-30.21-30.21A30.25,30.25,0,0,0,396.09,595.45Z" transform="translate(-364.9 -533.91)"></path>
              <path class="cls-2" d="M396.09,596.57a31.33,31.33,0,1,0-31.2-31.33A31.31,31.31,0,0,0,396.09,596.57Zm0-59.23a27.9,27.9,0,1,1-27.9,27.9A27.93,27.93,0,0,1,396.09,537.34Z" transform="translate(-364.9 -533.91)"></path>
              <path class="cls-2" d="M396.09,590.23a25,25,0,1,0-17.67-7.32A24.84,24.84,0,0,0,396.09,590.23Zm0-47.68a22.68,22.68,0,1,1-22.69,22.69A22.72,22.72,0,0,1,396.09,542.55Z" transform="translate(-364.9 -533.91)"></path>
              <path class="cls-2" d="M396.09,585a19.78,19.78,0,1,0-19.78-19.78A19.8,19.8,0,0,0,396.09,585Zm0-37.25a17.47,17.47,0,1,1-17.47,17.47A17.49,17.49,0,0,1,396.09,547.77Z" transform="translate(-364.9 -533.91)"></path>
              <path class="cls-2" d="M396.09,579.81a14.57,14.57,0,1,0-14.56-14.57A14.59,14.59,0,0,0,396.09,579.81Zm0-26.82a12.26,12.26,0,1,1-12.26,12.26A12.27,12.27,0,0,1,396.09,553Z" transform="translate(-364.9 -533.91)"></path>
              <path class="cls-2" d="M396.09,574.59a9.35,9.35,0,1,0-9.35-9.35A9.36,9.36,0,0,0,396.09,574.59Zm0-16.4a7,7,0,1,1-7,7A7.06,7.06,0,0,1,396.09,558.19Z" transform="translate(-364.9 -533.91)"></path>
            </g>
          </g>
        </g>
        <g transform="translate(-90.39036254882812, 34.64643859863281), rotate(0, 0, 0), scale(1)" fill="#333333" stroke-width="2" stroke="none">
          <g transform="translate(0, 0), rotate(0, 94.39036254882812, 87.35356140136719), scale(2.9)">
            <defs>
              <style>      .cls-1 {        fill: #fff;      }      .cls-1, .cls-2 {        fill-rule: evenodd;      }    </style>
            </defs>
            <title>circle2</title>
            <g>
              <path class="cls-1" d="M396.09,595.45a30.21,30.21,0,1,0-30.21-30.21A30.25,30.25,0,0,0,396.09,595.45Z" transform="translate(-364.9 -533.91)"></path>
              <path class="cls-2" d="M396.09,596.57a31.33,31.33,0,1,0-31.2-31.33A31.31,31.31,0,0,0,396.09,596.57Zm0-59.23a27.9,27.9,0,1,1-27.9,27.9A27.93,27.93,0,0,1,396.09,537.34Z" transform="translate(-364.9 -533.91)"></path>
              <path class="cls-2" d="M396.09,590.23a25,25,0,1,0-17.67-7.32A24.84,24.84,0,0,0,396.09,590.23Zm0-47.68a22.68,22.68,0,1,1-22.69,22.69A22.72,22.72,0,0,1,396.09,542.55Z" transform="translate(-364.9 -533.91)"></path>
              <path class="cls-2" d="M396.09,585a19.78,19.78,0,1,0-19.78-19.78A19.8,19.8,0,0,0,396.09,585Zm0-37.25a17.47,17.47,0,1,1-17.47,17.47A17.49,17.49,0,0,1,396.09,547.77Z" transform="translate(-364.9 -533.91)"></path>
              <path class="cls-2" d="M396.09,579.81a14.57,14.57,0,1,0-14.56-14.57A14.59,14.59,0,0,0,396.09,579.81Zm0-26.82a12.26,12.26,0,1,1-12.26,12.26A12.27,12.27,0,0,1,396.09,553Z" transform="translate(-364.9 -533.91)"></path>
              <path class="cls-2" d="M396.09,574.59a9.35,9.35,0,1,0-9.35-9.35A9.36,9.36,0,0,0,396.09,574.59Zm0-16.4a7,7,0,1,1-7,7A7.06,7.06,0,0,1,396.09,558.19Z" transform="translate(-364.9 -533.91)"></path>
            </g>
          </g>
          <g class="clone" transform="translate(182, 0), rotate(0, 94.39036254882812, 87.35356140136719), scale(2.9)">
            <defs>
              <style>      .cls-1 {        fill: #fff;      }      .cls-1, .cls-2 {        fill-rule: evenodd;      }    </style>
            </defs>
            <title>circle2</title>
            <g>
              <path class="cls-1" d="M396.09,595.45a30.21,30.21,0,1,0-30.21-30.21A30.25,30.25,0,0,0,396.09,595.45Z" transform="translate(-364.9 -533.91)"></path>
              <path class="cls-2" d="M396.09,596.57a31.33,31.33,0,1,0-31.2-31.33A31.31,31.31,0,0,0,396.09,596.57Zm0-59.23a27.9,27.9,0,1,1-27.9,27.9A27.93,27.93,0,0,1,396.09,537.34Z" transform="translate(-364.9 -533.91)"></path>
              <path class="cls-2" d="M396.09,590.23a25,25,0,1,0-17.67-7.32A24.84,24.84,0,0,0,396.09,590.23Zm0-47.68a22.68,22.68,0,1,1-22.69,22.69A22.72,22.72,0,0,1,396.09,542.55Z" transform="translate(-364.9 -533.91)"></path>
              <path class="cls-2" d="M396.09,585a19.78,19.78,0,1,0-19.78-19.78A19.8,19.8,0,0,0,396.09,585Zm0-37.25a17.47,17.47,0,1,1-17.47,17.47A17.49,17.49,0,0,1,396.09,547.77Z" transform="translate(-364.9 -533.91)"></path>
              <path class="cls-2" d="M396.09,579.81a14.57,14.57,0,1,0-14.56-14.57A14.59,14.59,0,0,0,396.09,579.81Zm0-26.82a12.26,12.26,0,1,1-12.26,12.26A12.27,12.27,0,0,1,396.09,553Z" transform="translate(-364.9 -533.91)"></path>
              <path class="cls-2" d="M396.09,574.59a9.35,9.35,0,1,0-9.35-9.35A9.36,9.36,0,0,0,396.09,574.59Zm0-16.4a7,7,0,1,1-7,7A7.06,7.06,0,0,1,396.09,558.19Z" transform="translate(-364.9 -533.91)"></path>
            </g>
          </g>
          <g class="clone" transform="translate(0, -91), rotate(0, 94.39036254882812, 87.35356140136719), scale(2.9)">
            <defs>
              <style>      .cls-1 {        fill: #fff;      }      .cls-1, .cls-2 {        fill-rule: evenodd;      }    </style>
            </defs>
            <title>circle2</title>
            <g>
              <path class="cls-1" d="M396.09,595.45a30.21,30.21,0,1,0-30.21-30.21A30.25,30.25,0,0,0,396.09,595.45Z" transform="translate(-364.9 -533.91)"></path>
              <path class="cls-2" d="M396.09,596.57a31.33,31.33,0,1,0-31.2-31.33A31.31,31.31,0,0,0,396.09,596.57Zm0-59.23a27.9,27.9,0,1,1-27.9,27.9A27.93,27.93,0,0,1,396.09,537.34Z" transform="translate(-364.9 -533.91)"></path>
              <path class="cls-2" d="M396.09,590.23a25,25,0,1,0-17.67-7.32A24.84,24.84,0,0,0,396.09,590.23Zm0-47.68a22.68,22.68,0,1,1-22.69,22.69A22.72,22.72,0,0,1,396.09,542.55Z" transform="translate(-364.9 -533.91)"></path>
              <path class="cls-2" d="M396.09,585a19.78,19.78,0,1,0-19.78-19.78A19.8,19.8,0,0,0,396.09,585Zm0-37.25a17.47,17.47,0,1,1-17.47,17.47A17.49,17.49,0,0,1,396.09,547.77Z" transform="translate(-364.9 -533.91)"></path>
              <path class="cls-2" d="M396.09,579.81a14.57,14.57,0,1,0-14.56-14.57A14.59,14.59,0,0,0,396.09,579.81Zm0-26.82a12.26,12.26,0,1,1-12.26,12.26A12.27,12.27,0,0,1,396.09,553Z" transform="translate(-364.9 -533.91)"></path>
              <path class="cls-2" d="M396.09,574.59a9.35,9.35,0,1,0-9.35-9.35A9.36,9.36,0,0,0,396.09,574.59Zm0-16.4a7,7,0,1,1-7,7A7.06,7.06,0,0,1,396.09,558.19Z" transform="translate(-364.9 -533.91)"></path>
            </g>
          </g>
          <g class="clone" transform="translate(182, -91), rotate(0, 94.39036254882812, 87.35356140136719), scale(2.9)">
            <defs>
              <style>      .cls-1 {        fill: #fff;      }      .cls-1, .cls-2 {        fill-rule: evenodd;      }    </style>
            </defs>
            <title>circle2</title>
            <g>
              <path class="cls-1" d="M396.09,595.45a30.21,30.21,0,1,0-30.21-30.21A30.25,30.25,0,0,0,396.09,595.45Z" transform="translate(-364.9 -533.91)"></path>
              <path class="cls-2" d="M396.09,596.57a31.33,31.33,0,1,0-31.2-31.33A31.31,31.31,0,0,0,396.09,596.57Zm0-59.23a27.9,27.9,0,1,1-27.9,27.9A27.93,27.93,0,0,1,396.09,537.34Z" transform="translate(-364.9 -533.91)"></path>
              <path class="cls-2" d="M396.09,590.23a25,25,0,1,0-17.67-7.32A24.84,24.84,0,0,0,396.09,590.23Zm0-47.68a22.68,22.68,0,1,1-22.69,22.69A22.72,22.72,0,0,1,396.09,542.55Z" transform="translate(-364.9 -533.91)"></path>
              <path class="cls-2" d="M396.09,585a19.78,19.78,0,1,0-19.78-19.78A19.8,19.8,0,0,0,396.09,585Zm0-37.25a17.47,17.47,0,1,1-17.47,17.47A17.49,17.49,0,0,1,396.09,547.77Z" transform="translate(-364.9 -533.91)"></path>
              <path class="cls-2" d="M396.09,579.81a14.57,14.57,0,1,0-14.56-14.57A14.59,14.59,0,0,0,396.09,579.81Zm0-26.82a12.26,12.26,0,1,1-12.26,12.26A12.27,12.27,0,0,1,396.09,553Z" transform="translate(-364.9 -533.91)"></path>
              <path class="cls-2" d="M396.09,574.59a9.35,9.35,0,1,0-9.35-9.35A9.36,9.36,0,0,0,396.09,574.59Zm0-16.4a7,7,0,1,1-7,7A7.06,7.06,0,0,1,396.09,558.19Z" transform="translate(-364.9 -533.91)"></path>
            </g>
          </g>
        </g>
        <g transform="translate(0.6096374511718778, -0.3535614013671875), rotate(0, 0, 0), scale(1)" fill="#333333" stroke-width="2" stroke="none">
          <g transform="translate(0, 0), rotate(0, 94.39036254882812, 87.35356140136719), scale(2.9)">
            <defs>
              <style>      .cls-1 {        fill: #fff;      }      .cls-1, .cls-2 {        fill-rule: evenodd;      }    </style>
            </defs>
            <title>circle2</title>
            <g>
              <path class="cls-1" d="M396.09,595.45a30.21,30.21,0,1,0-30.21-30.21A30.25,30.25,0,0,0,396.09,595.45Z" transform="translate(-364.9 -533.91)"></path>
              <path class="cls-2" d="M396.09,596.57a31.33,31.33,0,1,0-31.2-31.33A31.31,31.31,0,0,0,396.09,596.57Zm0-59.23a27.9,27.9,0,1,1-27.9,27.9A27.93,27.93,0,0,1,396.09,537.34Z" transform="translate(-364.9 -533.91)"></path>
              <path class="cls-2" d="M396.09,590.23a25,25,0,1,0-17.67-7.32A24.84,24.84,0,0,0,396.09,590.23Zm0-47.68a22.68,22.68,0,1,1-22.69,22.69A22.72,22.72,0,0,1,396.09,542.55Z" transform="translate(-364.9 -533.91)"></path>
              <path class="cls-2" d="M396.09,585a19.78,19.78,0,1,0-19.78-19.78A19.8,19.8,0,0,0,396.09,585Zm0-37.25a17.47,17.47,0,1,1-17.47,17.47A17.49,17.49,0,0,1,396.09,547.77Z" transform="translate(-364.9 -533.91)"></path>
              <path class="cls-2" d="M396.09,579.81a14.57,14.57,0,1,0-14.56-14.57A14.59,14.59,0,0,0,396.09,579.81Zm0-26.82a12.26,12.26,0,1,1-12.26,12.26A12.27,12.27,0,0,1,396.09,553Z" transform="translate(-364.9 -533.91)"></path>
              <path class="cls-2" d="M396.09,574.59a9.35,9.35,0,1,0-9.35-9.35A9.36,9.36,0,0,0,396.09,574.59Zm0-16.4a7,7,0,1,1-7,7A7.06,7.06,0,0,1,396.09,558.19Z" transform="translate(-364.9 -533.91)"></path>
            </g>
          </g>
          <g class="clone" transform="translate(-182, 0), rotate(0, 94.39036254882812, 87.35356140136719), scale(2.9)">
            <defs>
              <style>      .cls-1 {        fill: #fff;      }      .cls-1, .cls-2 {        fill-rule: evenodd;      }    </style>
            </defs>
            <title>circle2</title>
            <g>
              <path class="cls-1" d="M396.09,595.45a30.21,30.21,0,1,0-30.21-30.21A30.25,30.25,0,0,0,396.09,595.45Z" transform="translate(-364.9 -533.91)"></path>
              <path class="cls-2" d="M396.09,596.57a31.33,31.33,0,1,0-31.2-31.33A31.31,31.31,0,0,0,396.09,596.57Zm0-59.23a27.9,27.9,0,1,1-27.9,27.9A27.93,27.93,0,0,1,396.09,537.34Z" transform="translate(-364.9 -533.91)"></path>
              <path class="cls-2" d="M396.09,590.23a25,25,0,1,0-17.67-7.32A24.84,24.84,0,0,0,396.09,590.23Zm0-47.68a22.68,22.68,0,1,1-22.69,22.69A22.72,22.72,0,0,1,396.09,542.55Z" transform="translate(-364.9 -533.91)"></path>
              <path class="cls-2" d="M396.09,585a19.78,19.78,0,1,0-19.78-19.78A19.8,19.8,0,0,0,396.09,585Zm0-37.25a17.47,17.47,0,1,1-17.47,17.47A17.49,17.49,0,0,1,396.09,547.77Z" transform="translate(-364.9 -533.91)"></path>
              <path class="cls-2" d="M396.09,579.81a14.57,14.57,0,1,0-14.56-14.57A14.59,14.59,0,0,0,396.09,579.81Zm0-26.82a12.26,12.26,0,1,1-12.26,12.26A12.27,12.27,0,0,1,396.09,553Z" transform="translate(-364.9 -533.91)"></path>
              <path class="cls-2" d="M396.09,574.59a9.35,9.35,0,1,0-9.35-9.35A9.36,9.36,0,0,0,396.09,574.59Zm0-16.4a7,7,0,1,1-7,7A7.06,7.06,0,0,1,396.09,558.19Z" transform="translate(-364.9 -533.91)"></path>
            </g>
          </g>
          <g class="clone" transform="translate(0, -91), rotate(0, 94.39036254882812, 87.35356140136719), scale(2.9)">
            <defs>
              <style>      .cls-1 {        fill: #fff;      }      .cls-1, .cls-2 {        fill-rule: evenodd;      }    </style>
            </defs>
            <title>circle2</title>
            <g>
              <path class="cls-1" d="M396.09,595.45a30.21,30.21,0,1,0-30.21-30.21A30.25,30.25,0,0,0,396.09,595.45Z" transform="translate(-364.9 -533.91)"></path>
              <path class="cls-2" d="M396.09,596.57a31.33,31.33,0,1,0-31.2-31.33A31.31,31.31,0,0,0,396.09,596.57Zm0-59.23a27.9,27.9,0,1,1-27.9,27.9A27.93,27.93,0,0,1,396.09,537.34Z" transform="translate(-364.9 -533.91)"></path>
              <path class="cls-2" d="M396.09,590.23a25,25,0,1,0-17.67-7.32A24.84,24.84,0,0,0,396.09,590.23Zm0-47.68a22.68,22.68,0,1,1-22.69,22.69A22.72,22.72,0,0,1,396.09,542.55Z" transform="translate(-364.9 -533.91)"></path>
              <path class="cls-2" d="M396.09,585a19.78,19.78,0,1,0-19.78-19.78A19.8,19.8,0,0,0,396.09,585Zm0-37.25a17.47,17.47,0,1,1-17.47,17.47A17.49,17.49,0,0,1,396.09,547.77Z" transform="translate(-364.9 -533.91)"></path>
              <path class="cls-2" d="M396.09,579.81a14.57,14.57,0,1,0-14.56-14.57A14.59,14.59,0,0,0,396.09,579.81Zm0-26.82a12.26,12.26,0,1,1-12.26,12.26A12.27,12.27,0,0,1,396.09,553Z" transform="translate(-364.9 -533.91)"></path>
              <path class="cls-2" d="M396.09,574.59a9.35,9.35,0,1,0-9.35-9.35A9.36,9.36,0,0,0,396.09,574.59Zm0-16.4a7,7,0,1,1-7,7A7.06,7.06,0,0,1,396.09,558.19Z" transform="translate(-364.9 -533.91)"></path>
            </g>
          </g>
          <g class="clone" transform="translate(-182, -91), rotate(0, 94.39036254882812, 87.35356140136719), scale(2.9)">
            <defs>
              <style>      .cls-1 {        fill: #fff;      }      .cls-1, .cls-2 {        fill-rule: evenodd;      }    </style>
            </defs>
            <title>circle2</title>
            <g>
              <path class="cls-1" d="M396.09,595.45a30.21,30.21,0,1,0-30.21-30.21A30.25,30.25,0,0,0,396.09,595.45Z" transform="translate(-364.9 -533.91)"></path>
              <path class="cls-2" d="M396.09,596.57a31.33,31.33,0,1,0-31.2-31.33A31.31,31.31,0,0,0,396.09,596.57Zm0-59.23a27.9,27.9,0,1,1-27.9,27.9A27.93,27.93,0,0,1,396.09,537.34Z" transform="translate(-364.9 -533.91)"></path>
              <path class="cls-2" d="M396.09,590.23a25,25,0,1,0-17.67-7.32A24.84,24.84,0,0,0,396.09,590.23Zm0-47.68a22.68,22.68,0,1,1-22.69,22.69A22.72,22.72,0,0,1,396.09,542.55Z" transform="translate(-364.9 -533.91)"></path>
              <path class="cls-2" d="M396.09,585a19.78,19.78,0,1,0-19.78-19.78A19.8,19.8,0,0,0,396.09,585Zm0-37.25a17.47,17.47,0,1,1-17.47,17.47A17.49,17.49,0,0,1,396.09,547.77Z" transform="translate(-364.9 -533.91)"></path>
              <path class="cls-2" d="M396.09,579.81a14.57,14.57,0,1,0-14.56-14.57A14.59,14.59,0,0,0,396.09,579.81Zm0-26.82a12.26,12.26,0,1,1-12.26,12.26A12.27,12.27,0,0,1,396.09,553Z" transform="translate(-364.9 -533.91)"></path>
              <path class="cls-2" d="M396.09,574.59a9.35,9.35,0,1,0-9.35-9.35A9.36,9.36,0,0,0,396.09,574.59Zm0-16.4a7,7,0,1,1-7,7A7.06,7.06,0,0,1,396.09,558.19Z" transform="translate(-364.9 -533.91)"></path>
            </g>
          </g>
        </g>
      </svg>
    </pattern>
  </defs>
  <rect class="preview-output" width="100%" height="100%" fill="url(#pattern-output)"></rect>
</svg>
