<svg xmlns:svg="http://www.w3.org/2000/svg" xmlns="http://www.w3.org/2000/svg" version="1" viewBox="0 0 128.31 128.31">
  <defs>
    <style>
      .cls-1 {
        fill: #e42320;
      }

      .cls-1, .cls-2 {
        fill-rule: evenodd;
      }
    </style>
  </defs>
  <symbol id="circle" width="128.31" height="128.31" viewBox="0 0 128.31 128.31" preserveAspectRatio="xMidYMid meet">
    <g>
      <path class="cls-1" d="M63.88,126A61.85,61.85,0,1,0,2,64.16,61.94,61.94,0,0,0,63.88,126Z"/>
      <path class="cls-2" d="M63.88,128.31A64.16,64.16,0,1,0,0,64.16,64.11,64.11,0,0,0,63.88,128.31ZM63.88,7A57.13,57.13,0,1,1,6.74,64.16,57.2,57.2,0,0,1,63.88,7Z"/>
      <path class="cls-2" d="M63.88,115.33A51.17,51.17,0,1,0,63.88,13,51.17,51.17,0,0,0,27.7,100.34,50.85,50.85,0,0,0,63.88,115.33Zm0-97.63A46.44,46.44,0,1,1,17.42,64.16,46.52,46.52,0,0,1,63.88,17.7Z"/>
      <path class="cls-2" d="M63.88,104.66a40.5,40.5,0,1,0-40.49-40.5A40.55,40.55,0,0,0,63.88,104.66Zm0-76.28A35.77,35.77,0,1,1,28.1,64.16,35.82,35.82,0,0,1,63.88,28.38Z"/>
      <path class="cls-2" d="M63.88,94A29.83,29.83,0,1,0,34.07,64.16,29.87,29.87,0,0,0,63.88,94Zm0-54.93a25.1,25.1,0,1,1-25.1,25.1A25.12,25.12,0,0,1,63.88,39.05Z"/>
      <path class="cls-2" d="M63.88,83.3A19.15,19.15,0,1,0,44.74,64.16,19.17,19.17,0,0,0,63.88,83.3Zm0-33.58A14.43,14.43,0,1,1,49.46,64.16,14.46,14.46,0,0,1,63.88,49.72Z"/>
    </g>
  </symbol>
  <pattern id="basicPattern" x="0" y="0" width="460" height="50" patternUnits="userSpaceOnUse">
    <use xlink:href="#circle" xmlns:xlink="http://www.w3.org/1999/xlink" />
    <use xlink:href="#circle" xmlns:xlink="http://www.w3.org/1999/xlink" transform="translate(0, 64.155)" />
    <!-- <use xlink:href="#circle" xmlns:xlink="http://www.w3.org/1999/xlink" transform="translate(64.155, 64.155)" /> -->
  </pattern>
  <title>circle4</title>
  <rect x="0" y="0" width="460" height="460" fill="url(#basicPattern)"/>
</svg>
