<svg id="Layer_1" data-name="Layer 1" xmlns="http://www.w3.org/2000/svg" viewBox="0 0 46.67 30.88">
  <defs>
    <style>
      .cls-1 {
        fill: #1d1d1b;
      }

      .cls-2 {
        fill: #fff;
      }
    </style>
  </defs>
  <title>seigaiha</title>
  <g>
    <path class="cls-1" d="M0,23.16v4.06a11.66,11.66,0,0,1,8.46,3.66h5.06A15.72,15.72,0,0,0,0,23.16Zm33.15,7.72h5.06a11.66,11.66,0,0,1,8.46-3.66V23.16A15.72,15.72,0,0,0,33.15,30.88ZM46.67,4.06V0a8,8,0,0,0-7.78,6.17A23.53,23.53,0,0,0,35.8,3.8,11.72,11.72,0,0,1,38.21,0H33.15a16,16,0,0,0-1,1.9A23.19,23.19,0,0,0,28.83.8c0.11-.27.22-0.53,0.34-0.8H17.5c0.11,0.25.22,0.5,0.32,0.75a23,23,0,0,0-3.36,1.08A15.9,15.9,0,0,0,13.53,0H8.46a11.73,11.73,0,0,1,2.37,3.7A23.46,23.46,0,0,0,7.75,6,8,8,0,0,0,0,0V4.06A4,4,0,0,1,3.95,8,4,4,0,0,1,0,12v7.66H0A19.28,19.28,0,0,1,17.5,30.88H29.17A19.28,19.28,0,0,1,46.67,19.63V12A3.95,3.95,0,0,1,46.67,4.06ZM23.24,27.4a3.95,3.95,0,1,1,3.95-3.95A4,4,0,0,1,23.24,27.4ZM31,21.59a8,8,0,0,0-15.53-.14,23.38,23.38,0,0,0-3.08-2.31,11.65,11.65,0,0,1,21.7.1A23.57,23.57,0,0,0,31,21.59Zm6.72-4.25a15.74,15.74,0,0,0-29-.07A23.14,23.14,0,0,0,5.4,16.19a19.25,19.25,0,0,1,35.69,0A22.93,22.93,0,0,0,37.74,17.34Z"/>
    <path class="cls-2" d="M7.75,6A23.46,23.46,0,0,1,10.84,3.7,11.73,11.73,0,0,0,8.46,0H0A8,8,0,0,1,7.75,6ZM17.83,0.75C17.72,0.5,17.62.25,17.5,0h-4a15.9,15.9,0,0,1,.93,1.83A23,23,0,0,1,17.83.75ZM46.67,0H38.21A11.72,11.72,0,0,0,35.8,3.8a23.53,23.53,0,0,1,3.08,2.36A8,8,0,0,1,46.67,0ZM33.15,0h-4c-0.12.26-.23,0.53-0.34,0.8a23.19,23.19,0,0,1,3.36,1.1A16,16,0,0,1,33.15,0ZM0,30.88H8.46A11.66,11.66,0,0,0,0,27.22v3.66Zm46.67,0V27.22a11.66,11.66,0,0,0-8.46,3.66h8.46ZM0,19.63H0v3.53a15.72,15.72,0,0,1,13.53,7.72h4A19.28,19.28,0,0,0,0,19.63ZM29.17,30.88h4a15.72,15.72,0,0,1,13.52-7.72V19.63A19.28,19.28,0,0,0,29.17,30.88ZM3.95,8A4,4,0,0,0,0,4.06V12A4,4,0,0,0,3.95,8ZM42.73,8A4,4,0,0,0,46.67,12V4.06A4,4,0,0,0,42.73,8ZM23.24,19.51a3.95,3.95,0,1,0,3.95,3.95A4,4,0,0,0,23.24,19.51ZM5.4,16.19a23.14,23.14,0,0,1,3.37,1.07,15.74,15.74,0,0,1,29,.07,22.93,22.93,0,0,1,3.35-1.1A19.25,19.25,0,0,0,5.4,16.19Zm28.71,3a11.65,11.65,0,0,0-21.7-.1,23.38,23.38,0,0,1,3.08,2.31A8,8,0,0,1,31,21.59,23.57,23.57,0,0,1,34.11,19.24Z"/>
  </g>
</svg>
